<svg xmlns="http://www.w3.org/2000/svg" data-name="Layer 1" viewBox="0 0 512 512" id="network"><g data-name=" Group 2"><path fill="#fedb41" d="M413 259.68h-.02a19.5 19.5 0 1 1 .02 0zM399.56 384.98a19.5 19.5 0 0 1 13.42-33.66h.01a19.505 19.505 0 1 1-13.43 33.66z"></path><path fill="#00efd1" d="M371,305.06H322.28a163.826,163.826,0,0,0-9.19-55.46,112.833,112.833,0,0,0,28.38-23.71A119.641,119.641,0,0,1,371,305.06Z"></path><path fill="#00acea" d="M322.28 305.06H371a119.647 119.647 0 0 1-29.53 79.18 112.658 112.658 0 0 0-28.38-23.71A163.843 163.843 0 0 0 322.28 305.06zM260.45 187.44c32.09.85 60.86 15.5 81.02 38.45a112.833 112.833 0 0 1-28.38 23.71C303.16 222.03 285.34 199.82 260.45 187.44z"></path><path fill="#00efd1" d="M341.47,384.24c-20.16,22.95-48.93,37.6-81.02,38.45,24.89-12.38,42.71-34.59,52.64-62.16A112.658,112.658,0,0,1,341.47,384.24Z"></path><path fill="#fedb41" d="M301.7 148v-.12a19.45 19.45 0 1 1 0 .12zM301.7 464a19.56 19.56 0 1 1 0 .12z"></path><path fill="#00acea" d="M322.28,305.06H257.5V264.65a109.417,109.417,0,0,0,55.59-15.05A163.826,163.826,0,0,1,322.28,305.06Z"></path><path fill="#00efd1" d="M257.5 305.06h64.78a163.843 163.843 0 0 1-9.19 55.47 109.326 109.326 0 0 0-55.59-15.06zM313.09 249.6a109.417 109.417 0 0 1-55.59 15.05V187.4c.99 0 1.97.01 2.95.04C285.34 199.82 303.16 222.03 313.09 249.6z"></path><path fill="#00acea" d="M257.5,345.47a109.326,109.326,0,0,1,55.59,15.06c-9.93,27.57-27.75,49.78-52.64,62.16-.98.03-1.96.04-2.95.04V345.47Z"></path><path fill="#00efd1" d="M257.5,412.03v10.7c-.99,0-1.97-.01-2.95-.04-24.94-12.4-42.79-34.68-52.7-62.34a111.585,111.585,0,0,1,55.65-14.88Z"></path><path fill="#00acea" d="M257.5,305.06v40.41a111.585,111.585,0,0,0-55.65,14.88,163.852,163.852,0,0,1-9.13-55.29Z"></path><path fill="#00efd1" d="M257.5,264.65v40.41H192.72a164.142,164.142,0,0,1,9.13-55.29A111.482,111.482,0,0,0,257.5,264.65Z"></path><path fill="#00acea" d="M257.5,198.1v66.55a111.482,111.482,0,0,1-55.65-14.88c9.92-27.65,27.77-49.93,52.7-62.33.98-.03,1.96-.04,2.95-.04Z"></path><path fill="#fedb41" d="M210.06 148a19.56 19.56 0 1 1 0-.12zM176.81 450.28A19.5 19.5 0 0 1 210.06 464v.12a19.505 19.505 0 1 1-33.25-13.84z"></path><path fill="#00efd1" d="M254.55,187.44c-24.93,12.4-42.78,34.68-52.7,62.33a110.99,110.99,0,0,1-28.6-23.55C193.41,203.08,222.31,188.29,254.55,187.44Z"></path><path fill="#00acea" d="M201.85 360.35c9.91 27.66 27.76 49.94 52.7 62.34-32.24-.85-61.14-15.64-81.3-38.78A110.659 110.659 0 0 1 201.85 360.35zM201.85 249.77a164.142 164.142 0 0 0-9.13 55.29H144a119.669 119.669 0 0 1 29.25-78.84A110.99 110.99 0 0 0 201.85 249.77z"></path><path fill="#00efd1" d="M192.72,305.06a163.852,163.852,0,0,0,9.13,55.29,110.659,110.659,0,0,0-28.6,23.56A119.676,119.676,0,0,1,144,305.06Z"></path><path fill="#fedb41" d="M97 259.65a19.449 19.449 0 1 1 1.02.03Q97.51 259.68 97 259.65zM98.02 351.32a19.389 19.389 0 1 1-1.01.02c.21-.01.41-.02.62-.02z"></path><path fill="#083863" d="M193.117,63.047a88.935,88.935,0,0,1,125.766,0A8,8,0,0,0,330.2,51.733a104.936,104.936,0,0,0-148.394,0,8,8,0,1,0,11.314,11.314Z"></path><path fill="#083863" d="M302.25,87.69a8,8,0,0,0,5.658-13.656,73.395,73.395,0,0,0-103.816,0,8,8,0,1,0,11.316,11.312,57.393,57.393,0,0,1,81.184,0A7.973,7.973,0,0,0,302.25,87.69Z"></path><path fill="#083863" d="M229.383 99.313A8 8 0 0 0 240.7 110.627a21.666 21.666 0 0 1 30.606 0 8 8 0 1 0 11.314-11.314A37.686 37.686 0 0 0 229.383 99.313zM257.5 430.73c1.073 0 2.135-.011 3.162-.043 33.443-.886 64.276-15.506 86.819-41.168a128.9 128.9 0 0 0 0-168.909c-22.542-25.661-53.375-40.281-86.787-41.166-2.123-.065-4.3-.064-6.354 0-33.138.873-64.893 16.008-87.121 41.522a128.891 128.891 0 0 0 0 168.2c22.229 25.513 53.983 40.647 87.085 41.52C255.365 430.719 256.427 430.73 257.5 430.73zM173.733 371.7A113.145 113.145 0 0 1 152.283 313h32.6a173.887 173.887 0 0 0 7.368 43.824A118.331 118.331 0 0 0 173.733 371.7zm0-133.323a118.425 118.425 0 0 0 18.522 14.835A173.83 173.83 0 0 0 184.885 297h-32.6A112.918 112.918 0 0 1 173.735 238.372zm167.3-.329A113.3 113.3 0 0 1 362.719 297h-32.6a174.186 174.186 0 0 0-7.441-44.024A120.13 120.13 0 0 0 341.031 238.043zm0 133.982a120.029 120.029 0 0 0-18.357-14.965 167.164 167.164 0 0 0 7.44-44.06h32.6A110.423 110.423 0 0 1 341.032 372.025zM265 410.609V353.8a97.281 97.281 0 0 1 37.555 10.39C294.1 384.268 282 400.094 265 410.609zm0-72.865V313h49.1a152.932 152.932 0 0 1-5.946 35.978A118.752 118.752 0 0 0 265 337.744zM314.1 297H265V272.377a118.917 118.917 0 0 0 43.15-11.288A152.291 152.291 0 0 1 314.1 297zM265 256.324v-56.8c17 10.514 29.093 26.338 37.554 46.421A97.361 97.361 0 0 1 265 256.324zm-16-56.8v56.806a104.037 104.037 0 0 1-37.6-10.267C219.858 225.921 233 210.056 249 199.52zm0 72.858V297H200.9a152.347 152.347 0 0 1 5.418-35.8A123.335 123.335 0 0 0 249 272.378zM200.9 313H249v24.745a123.42 123.42 0 0 0-42.683 11.112A152.806 152.806 0 0 1 200.9 313zM249 353.8v56.815c-16-10.536-29.15-26.4-37.6-46.55A104.185 104.185 0 0 1 249 353.8zm44.3 54.5a122.306 122.306 0 0 0 23.6-35.757A104.459 104.459 0 0 1 330.535 384.2 104.063 104.063 0 0 1 293.3 408.3zm37.236-182.369A104.687 104.687 0 0 1 316.9 237.589a122.332 122.332 0 0 0-23.6-35.758A104.068 104.068 0 0 1 330.534 225.926zm-108.821-24.1A122.42 122.42 0 0 0 198 237.838a102.458 102.458 0 0 1-13.812-11.625A103.943 103.943 0 0 1 221.713 201.824zm-37.532 182.09a102.192 102.192 0 0 1 13.811-11.63 122.3 122.3 0 0 0 23.715 36.022A103.969 103.969 0 0 1 184.181 383.914z"></path><path fill="#083863" d="M440.49,240.17a27.522,27.522,0,0,0-40.163-24.425l-54.872-54.856A27.509,27.509,0,1,0,294.857,140H216.9a27.506,27.506,0,1,0-50.739,20.612l-55.423,55.164A27.512,27.512,0,1,0,89,266.162V344.83a27.513,27.513,0,1,0,21.547,50.49l55.765,55.774A27.51,27.51,0,1,0,216.9,472h77.954a27.507,27.507,0,1,0,50.471-21.122l55.2-55.523A27.506,27.506,0,1,0,421,344.521V266.483A27.562,27.562,0,0,0,440.49,240.17Zm-16,0a11.51,11.51,0,1,1-23.02,0,11.342,11.342,0,0,1,3.507-8.245L405,231.9a11.383,11.383,0,0,1,7.976-3.228A11.518,11.518,0,0,1,424.49,240.17ZM310,147.88a11.393,11.393,0,1,1,19.357,8.157,11.135,11.135,0,0,1-7.978,3.353A11.4,11.4,0,0,1,310,147.972Zm-119.48-11.5A11.492,11.492,0,0,1,202,147.88v.068a11.49,11.49,0,0,1-11.48,11.442,11.353,11.353,0,0,1-8.2-3.465c0-.006,0-.01-.007-.015a11.488,11.488,0,0,1,8.2-19.53Zm-92.5,92.29a11.505,11.505,0,1,1,0,23.01c-.183,0-.367-.006-.549-.016l-.06,0a11.5,11.5,0,0,1,.609-22.991ZM86.51,370.82a11.5,11.5,0,0,1,10.911-11.491l-.411-7.989-.016-.34h0l.014.34.426,7.989.584-.009a11.519,11.519,0,0,1,11.51,11.5,11.515,11.515,0,0,1-11.51,11.51A11.523,11.523,0,0,1,86.51,370.82ZM202,464.12a11.483,11.483,0,1,1-19.557-8.167,11.355,11.355,0,0,1,8.073-3.343A11.485,11.485,0,0,1,202,464.028Zm-11.45-27.51a27.352,27.352,0,0,0-12.9,3.2l-55.586-55.594a27.535,27.535,0,0,0-17.068-40V266.78a27.535,27.535,0,0,0,17.172-39.807l55.2-54.939a27.292,27.292,0,0,0,13.182,3.356A27.593,27.593,0,0,0,216.818,156h78.116a27.517,27.517,0,0,0,39.185,16.181l54.746,54.73a27.273,27.273,0,0,0-3.395,13.259A27.552,27.552,0,0,0,405,266.492V344.5a27.526,27.526,0,0,0-16.026,39.779L333.879,439.7A27.495,27.495,0,0,0,294.942,456H216.826A27.6,27.6,0,0,0,190.55,436.61Zm130.81,39.01A11.391,11.391,0,0,1,310,464.12v-.068a11.387,11.387,0,0,1,11.36-11.442,11.26,11.26,0,0,1,7.931,3.258l-.033,0a11.459,11.459,0,0,1-7.9,19.747Zm103.13-104.8a11.51,11.51,0,1,1-11.508-11.5A11.523,11.523,0,0,1,424.49,370.82Z"></path></g></svg>