<svg xmlns="http://www.w3.org/2000/svg" width="100" height="100" id="outsourcing"><path d="M79.465 34.479c.681 0 1.358-.276 1.852-.819l.034-.037a2.478 2.478 0 0 0-.188-3.513c-1.022-.929-2.62-.833-3.548.188a2.499 2.499 0 0 0 1.85 4.181zm-6.838 1.306a2.499 2.499 0 1 0 3.698 3.365l.047-.052c.93-1.021.832-2.576-.188-3.506-1.023-.928-2.627-.828-3.557.193zm-51.276-5.524c-.929-1.021-2.492-1.079-3.515-.151s-1.082 2.527-.154 3.55a2.497 2.497 0 0 0 1.853.819 2.5 2.5 0 0 0 1.851-4.18l-.035-.038zm3.172 9.707a2.5 2.5 0 0 0 1.849-4.182l-.048-.052c-.929-1.021-2.486-1.067-3.508-.141-1.021.93-1.071 2.537-.142 3.558a2.499 2.499 0 0 0 1.849.817zm20.809 47.66c-11.871-2.054-20.215-12.096-20.399-23.736l4.949.855-6.598-12.229-10.321 9.303 4.979.861c-.409 15.522 10.491 29.127 26.198 31.845 12.95 2.238 25.693-3.598 32.466-14.866l-5.999-3.606c-5.273 8.773-15.195 13.316-25.275 11.573zm9.572-55.374c-12.763-2.204-25.814 3.779-32.48 14.887l6.002 3.603c5.189-8.648 15.352-13.306 25.285-11.591 11.875 2.055 20.215 12.096 20.4 23.736l-4.951-.855 6.6 12.229 10.321-9.304-4.979-.86c.407-15.524-10.486-29.126-26.198-31.845z"></path><circle cx="80" cy="11.5" r="6.5"></circle><path d="M92.5 23c0-2.749-4.541-5-10.092-5h-4.816C72.041 18 67.5 20.251 67.5 23v5h25v-5z"></path><circle cx="50" cy="11.5" r="6.5"></circle><path d="M62.5 28v-5c0-2.749-4.541-5-10.092-5h-4.816C42.041 18 37.5 20.251 37.5 23v5h25z"></path><circle cx="20" cy="11.5" r="6.5"></circle><path d="M32.5 28v-5c0-2.749-4.541-5-10.092-5h-4.816C12.041 18 7.5 20.251 7.5 23v5h25zm.026 40.262H32.5v7.68h13.125l2.674-6.294-3.6-4.706h9.6l-3.6 4.706 2.676 6.294H66.5v-7.68h-.027c-.281-3.542-6.327-6.4-13.695-6.4H50.64c4.432-.562 7.86-4.338 7.86-8.92 0-4.972-4.029-9-9-9s-9 4.028-9 9c0 4.582 3.429 8.358 7.859 8.92h-2.135c-7.37-.001-13.415 2.858-13.698 6.4z"></path></svg>